<?xml version="1.0" standalone="no"?><!DOCTYPE svg PUBLIC "-//W3C//DTD SVG 1.1//EN" "http://www.w3.org/Graphics/SVG/1.1/DTD/svg11.dtd"><svg t="1658286281979" class="icon" viewBox="0 0 1024 1024" version="1.1" xmlns="http://www.w3.org/2000/svg" p-id="1594" xmlns:xlink="http://www.w3.org/1999/xlink" width="200" height="200"><defs><style type="text/css">@font-face { font-family: feedback-iconfont; src: url("//at.alicdn.com/t/font_1031158_u69w8yhxdu.woff2?t=1630033759944") format("woff2"), url("//at.alicdn.com/t/font_1031158_u69w8yhxdu.woff?t=1630033759944") format("woff"), url("//at.alicdn.com/t/font_1031158_u69w8yhxdu.ttf?t=1630033759944") format("truetype"); }
</style></defs><path d="M384 938.666667a21.333333 21.333333 0 0 1-16.512-7.808C356.864 917.888 106.666667 610.133333 106.666667 362.666667c0-249.173333 110.592-362.666667 213.333333-362.666667 105.301333 0 170.666667 73.557333 170.666667 192a21.333333 21.333333 0 0 1-42.666667 0c0-94.890667-46.677333-149.333333-128-149.333333-82.218667 0-170.666667 100.138667-170.666667 320 0 232.362667 248.661333 538.069333 251.178667 541.141333A21.333333 21.333333 0 0 1 384 938.666667z" fill="#888888" p-id="1595"></path><path d="M362.666667 341.333333a21.333333 21.333333 0 0 1-13.312-4.650666l-106.666667-85.333334a21.418667 21.418667 0 0 1-7.936-18.432c0.042667-0.768 5.632-76.842667-33.450667-119.168C183.594667 94.634667 159.616 85.333333 128 85.333333a21.333333 21.333333 0 0 1 0-42.666666c43.648 0 78.933333 14.250667 104.789333 42.325333 41.472 45.056 45.269333 112.64 44.928 139.733333l98.304 78.592A21.333333 21.333333 0 0 1 362.666667 341.333333zM128 810.666667a21.333333 21.333333 0 0 1 0-42.666667c30.506667 0 53.888-9.557333 71.381333-29.226667 39.253333-44.117333 38.869333-130.688 35.413334-160.298666a21.248 21.248 0 0 1 6.144-17.578667l85.333333-85.333333a21.333333 21.333333 0 0 1 30.165333 30.165333l-78.336 78.336c2.090667 31.701333 3.541333 126.464-46.848 183.082667C205.525333 796.032 170.794667 810.666667 128 810.666667zM298.666667 1024a21.418667 21.418667 0 0 1-20.266667-14.592l-42.666667-128a21.333333 21.333333 0 0 1 2.176-18.048l106.666667-170.666667a21.376 21.376 0 0 1 36.181333 22.613334l-101.333333 162.133333 39.509333 118.442667A21.333333 21.333333 0 0 1 298.666667 1024zM512 341.333333c-45.781333 0-77.781333-11.648-95.018667-34.645333-19.114667-25.472-11.690667-53.546667-10.794666-56.661333a22.186667 22.186667 0 0 1 2.730666-5.845334l42.666667-64A21.290667 21.290667 0 0 1 469.333333 170.666667h85.333334c7.125333 0 13.781333 3.541333 17.749333 9.514666l42.666667 64a20.906667 20.906667 0 0 1 2.730666 5.845334c0.896 3.114667 8.277333 31.189333-10.837333 56.704C589.781333 329.685333 557.781333 341.333333 512 341.333333z m-65.194667-77.056a23.978667 23.978667 0 0 0 4.565334 17.152c8.661333 11.093333 30.208 17.237333 60.629333 17.237334 30.762667 0 52.394667-6.229333 60.885333-17.578667a24.576 24.576 0 0 0 4.352-16.853333L543.232 213.333333h-62.506667l-33.92 50.944z" fill="#888888" p-id="1596"></path><path d="M640 938.666667a21.290667 21.290667 0 0 1-16.469333-34.858667c2.474667-3.072 251.136-308.992 251.136-541.141333 0-219.861333-88.448-320-170.666667-320-81.322667 0-128 54.442667-128 149.333333a21.333333 21.333333 0 0 1-42.666667 0c0-118.442667 65.365333-192 170.666667-192 102.741333 0 213.333333 113.493333 213.333333 362.666667 0 247.466667-250.197333 555.221333-260.821333 568.192A21.205333 21.205333 0 0 1 640 938.666667z" fill="#888888" p-id="1597"></path><path d="M512 938.666667c-104.106667 0-192-248.96-192-405.333334 0-155.818667 21.674667-198.229333 24.106667-202.581333a20.906667 20.906667 0 0 1 3.456-4.48l64-64a21.333333 21.333333 0 0 1 30.165333 30.165333L380.458667 353.706667c-3.413333 9.002667-17.792 54.357333-17.792 179.626666 0 152.533333 86.528 362.666667 149.333333 362.666667s149.333333-210.133333 149.333333-362.666667c0-124.074667-14.122667-169.728-17.92-179.712l-61.184-61.184a21.333333 21.333333 0 0 1 30.165334-30.165333l64 64a22.016 22.016 0 0 1 3.456 4.48c2.474667 4.352 24.149333 46.762667 24.149333 202.581333 0 156.373333-87.893333 405.333333-192 405.333334z" fill="#888888" p-id="1598"></path><path d="M661.333333 341.333333a21.333333 21.333333 0 0 1-13.354666-38.016l98.304-78.592c-0.341333-27.093333 3.456-94.677333 44.928-139.733333C817.066667 56.917333 852.352 42.666667 896 42.666667a21.333333 21.333333 0 0 1 0 42.666666c-31.701333 0-55.722667 9.344-73.386667 28.544-32.554667 35.370667-35.114667 97.877333-33.365333 118.997334a21.333333 21.333333 0 0 1-7.936 18.432l-106.666667 85.333333A21.248 21.248 0 0 1 661.333333 341.333333zM896 810.666667c-42.794667 0-77.525333-14.634667-103.253333-43.52-50.389333-56.618667-48.896-151.338667-46.848-183.082667l-78.336-78.336a21.333333 21.333333 0 0 1 30.165333-30.165333l85.333333 85.333333c4.565333 4.608 6.826667 11.050667 6.144 17.536-0.128 1.066667-11.690667 107.477333 35.498667 160.384 17.493333 19.626667 40.789333 29.184 71.296 29.184a21.333333 21.333333 0 0 1 0 42.666667zM725.333333 1024a21.333333 21.333333 0 0 1-20.224-28.074667l39.509334-118.442666-101.333334-162.133334a21.333333 21.333333 0 0 1 36.138667-22.613333l106.666667 170.666667a21.333333 21.333333 0 0 1 2.176 18.048l-42.666667 128A21.418667 21.418667 0 0 1 725.333333 1024zM512 938.666667a21.333333 21.333333 0 0 1-21.333333-21.333334v-597.333333a21.333333 21.333333 0 0 1 42.666666 0v597.333333a21.333333 21.333333 0 0 1-21.333333 21.333334z" fill="#888888" p-id="1599"></path></svg>