<?xml version="1.0" standalone="no"?><!DOCTYPE svg PUBLIC "-//W3C//DTD SVG 1.1//EN" "http://www.w3.org/Graphics/SVG/1.1/DTD/svg11.dtd"><svg t="1658281587623" class="icon" viewBox="0 0 1024 1024" version="1.1" xmlns="http://www.w3.org/2000/svg" p-id="4789" xmlns:xlink="http://www.w3.org/1999/xlink" width="200" height="200"><defs><style type="text/css">@font-face { font-family: feedback-iconfont; src: url("//at.alicdn.com/t/font_1031158_u69w8yhxdu.woff2?t=1630033759944") format("woff2"), url("//at.alicdn.com/t/font_1031158_u69w8yhxdu.woff?t=1630033759944") format("woff"), url("//at.alicdn.com/t/font_1031158_u69w8yhxdu.ttf?t=1630033759944") format("truetype"); }
</style></defs><path d="M852.48 93.226667A113.152 113.152 0 0 1 896 85.333333a21.333333 21.333333 0 0 0 0-42.666666c-26.624 0-49.749333 5.973333-69.930667 16.469333C789.461333 19.456 746.154667 0 704 0c-98.645333 0-161.493333 65.109333-169.130667 170.666667h-45.696c-7.68-105.557333-70.528-170.666667-169.173333-170.666667-42.154667 0-85.461333 19.456-122.069333 59.136A149.077333 149.077333 0 0 0 128 42.666667a21.333333 21.333333 0 0 0 0 42.666666c16.597333 0 30.933333 2.730667 43.52 7.893334C132.906667 152.789333 106.666667 241.578667 106.666667 362.666667c0 113.92 53.12 240.384 111.36 345.216a115.797333 115.797333 0 0 1-18.645334 30.890666C181.888 758.442667 158.506667 768 128 768a21.333333 21.333333 0 0 0 0 42.666667c42.794667 0 77.525333-14.634667 103.253333-43.52 4.437333-4.992 8.021333-10.581333 11.690667-16.128 11.050667 18.389333 21.973333 35.882667 32.554667 52.138666l-37.589334 60.16a21.333333 21.333333 0 0 0-2.176 18.048l42.666667 128a21.376 21.376 0 0 0 40.533333-13.482666l-39.509333-118.442667 22.101333-35.370667a1448.362667 1448.362667 0 0 0 65.962667 88.789334 21.333333 21.333333 0 0 0 33.024-27.050667c-0.896-1.109333-33.109333-40.917333-74.026667-101.674667l33.109334-52.992c31.274667 90.794667 78.293333 168.704 131.072 185.770667V382.336c-48.682667-3.925333-85.632-20.522667-109.994667-53.504-0.896-1.28-2.261333-2.048-3.413333-3.072L277.717333 226.218667c0.426667-26.026667-2.688-95.317333-44.928-141.226667-0.298667-0.341333-0.682667-0.554667-0.981333-0.853333C258.944 56.277333 289.877333 42.666667 320 42.666667c79.530667 0 125.653333 52.352 127.616 143.445333l-38.698667 58.069333a20.906667 20.906667 0 0 0-2.730666 5.845334c-0.896 3.114667-8.32 31.189333 10.794666 56.661333C434.218667 329.685333 466.218667 341.333333 512 341.333333s77.781333-11.648 95.018667-34.645333c19.114667-25.472 11.690667-53.546667 10.794666-56.661333a22.186667 22.186667 0 0 0-2.730666-5.845334l-38.698667-58.069333C578.346667 95.018667 624.469333 42.666667 704 42.666667c30.122667 0 61.056 13.610667 88.192 41.472-0.298667 0.341333-0.682667 0.554667-0.981333 0.853333-42.24 45.952-45.397333 115.2-44.928 141.226667l-100.053334 100.053333c-1.024 1.024-1.536 2.304-2.304 3.498667-0.896 0.896-2.090667 1.664-2.773333 2.56-22.442667 29.909333-59.178667 46.165333-107.818667 50.005333v552.618667c52.778667-17.066667 99.797333-94.976 131.072-185.813334l33.109334 52.949334a1560.234667 1560.234667 0 0 1-73.984 101.674666 21.333333 21.333333 0 0 0 32.981333 27.093334c3.328-4.096 30.421333-37.418667 65.962667-88.832l22.144 35.456-39.509334 118.442666a21.333333 21.333333 0 0 0 40.490667 13.525334l42.666667-128a21.333333 21.333333 0 0 0-2.176-18.048l-37.632-60.202667c10.624-16.256 21.546667-33.792 32.597333-52.181333 3.669333 5.504 7.253333 11.136 11.690667 16.128 25.728 28.885333 60.458667 43.52 103.253333 43.52a21.333333 21.333333 0 0 0 0-42.666667c-30.506667 0-53.802667-9.557333-71.296-29.184a114.730667 114.730667 0 0 1-18.986667-30.464c58.368-104.96 111.616-231.594667 111.616-345.685333 0-121.088-26.24-209.877333-64.853333-269.44zM300.757333 762.794667a1553.92 1553.92 0 0 1-35.584-59.093334c15.061333-47.872 14.336-98.176 12.928-119.637333l42.154667-42.154667c0.896 46.506667 9.130667 100.181333 22.997333 152.917334l-42.496 67.968zM234.752 232.917333a21.504 21.504 0 0 0 6.144 16.853334L337.92 346.794667c-5.973333 19.456-14.293333 59.221333-17.024 134.144l-79.957333 79.957333a21.248 21.248 0 0 0-6.144 17.578667c1.578667 13.653333 2.346667 39.509333-0.938667 67.626666C187.434667 555.306667 149.333333 453.461333 149.333333 362.666667c0-111.104 22.613333-191.530667 55.552-244.010667 34.688 43.008 29.909333 113.536 29.866667 114.261333z m488.490667 529.877334l-42.496-67.968c13.866667-52.736 22.101333-106.410667 22.997333-152.96l42.154667 42.154666c-1.365333 21.504-2.133333 71.765333 12.928 119.594667-11.946667 20.821333-23.850667 40.704-35.584 59.178667z m66.773333-116.48c-4.138667-36.522667-0.853333-67.285333-0.810667-67.882667a21.674667 21.674667 0 0 0-6.144-17.536l-79.957333-79.957333c-2.730667-75.008-11.050667-114.730667-17.024-134.186667l96.981333-96.981333a21.12 21.12 0 0 0 6.186667-16.853334c-1.664-20.266667 0.896-78.336 29.824-114.261333C852.010667 171.093333 874.666667 251.52 874.666667 362.666667c0 90.837333-38.186667 192.768-84.650667 283.648z" p-id="4790"></path></svg>