<?xml version="1.0" standalone="no"?><!DOCTYPE svg PUBLIC "-//W3C//DTD SVG 1.1//EN" "http://www.w3.org/Graphics/SVG/1.1/DTD/svg11.dtd"><svg t="1658280721282" class="icon" viewBox="0 0 1024 1024" version="1.1" xmlns="http://www.w3.org/2000/svg" p-id="1450" xmlns:xlink="http://www.w3.org/1999/xlink" width="200" height="200"><defs><style type="text/css">@font-face { font-family: feedback-iconfont; src: url("//at.alicdn.com/t/font_1031158_u69w8yhxdu.woff2?t=1630033759944") format("woff2"), url("//at.alicdn.com/t/font_1031158_u69w8yhxdu.woff?t=1630033759944") format("woff"), url("//at.alicdn.com/t/font_1031158_u69w8yhxdu.ttf?t=1630033759944") format("truetype"); }
</style></defs><path d="M989 579.63l-53-98.22-15 25.93 0.23-0.4-375.41-214.81-1.13-0.65-1.19-0.53a136.77 136.77 0 0 0-54.62-10.58c-41.28 0.84-74.27 23-92.89 62.27-22.73 48-12.55 86.6 0 110.55 13.12 25 31.39 39 33.43 40.55l1.12 0.83L579 582.39A86.91 86.91 0 0 1 595.67 606c9.41 20 8.34 39.56-3.27 59.88-6.54 11.45-18.67 26.35-48.18 23.75-19.4-1.63-36.22-10.03-37.68-10.77L139.68 474.19l13-23-106.4-5 53.88 97.72 13-23 367.49 205 0.42 0.23A165.81 165.81 0 0 0 537.46 743a129.79 129.79 0 0 0 13.41 0.71c38.15 0 69.13-17.83 88.14-51.1 25.72-45 17-84.34 5.22-109.4a136.75 136.75 0 0 0-31.6-42.78l-1.78-1.53L460.68 450a77.18 77.18 0 0 1-17.15-21.76c-10.15-19.37-9.83-39.87 1-62.66 9.79-20.67 23.8-30.69 44.09-31.54 15-0.64 28.42 4.09 32.07 5.5l373.66 213.85-11.7 20.2z" p-id="1451"></path><path d="M208.35 470.12C229 316.45 361.67 200.57 517 200.57c139.68 0 262.9 93.73 300.12 228.08l53.53 29.2a355.83 355.83 0 0 0-8.37-40.35C819.93 262.43 677.94 154.12 517 154.12c-178.48 0-331 133.19-354.68 309.83-0.15 1.11-0.2 2.25-0.34 3.36l44.27 24.14c0.47-7.14 1.16-14.27 2.1-21.33zM825 558.43c-22.57 151.06-155 265-308 265-138 0-259.55-91.37-298.48-223l-54.4-29.67c1.93 11.67 4.24 23.27 7.32 34.67 42 155.69 184.1 264.43 345.55 264.43 175.84 0 328-130.95 354-304.59 0.23-1.55 0.31-3.14 0.52-4.7l-44-24c-0.64 7.33-1.42 14.64-2.51 21.86z" p-id="1452"></path></svg>