<?xml version="1.0" standalone="no"?><!DOCTYPE svg PUBLIC "-//W3C//DTD SVG 1.1//EN" "http://www.w3.org/Graphics/SVG/1.1/DTD/svg11.dtd"><svg t="1658280910103" class="icon" viewBox="0 0 1024 1024" version="1.1" xmlns="http://www.w3.org/2000/svg" p-id="3182" xmlns:xlink="http://www.w3.org/1999/xlink" width="200" height="200"><defs><style type="text/css">@font-face { font-family: feedback-iconfont; src: url("//at.alicdn.com/t/font_1031158_u69w8yhxdu.woff2?t=1630033759944") format("woff2"), url("//at.alicdn.com/t/font_1031158_u69w8yhxdu.woff?t=1630033759944") format("woff"), url("//at.alicdn.com/t/font_1031158_u69w8yhxdu.ttf?t=1630033759944") format("truetype"); }
</style></defs><path d="M1004 463.5c-6.1 0-11.1 5-11.1 11.1s5 11.1 11.1 11.1 11.1-5 11.1-11.1c0-6.2-5-11.1-11.1-11.1z m3.2 18.6l-3.2-6.1h-2.2v6.1h-3.1v-15.9h4c2.2 0 3.1 0 4.2 0.4 2.8 1 3.1 3.5 3.1 4.4 0 0.5-0.1 0.9-0.1 1.3-0.2 1.1-1 2.1-2 2.7-0.1 0.1-0.2 0.2-0.7 0.4l3.7 6.6h-3.7v0.1zM599.4 558.6c-22.5-0.5-34.2-12.9-33.8-35.4 0.5-22.5 12.9-34.2 35.4-33.8h70.9l14.2-28.2H598c-34.7 0.4-62.5 28.8-62.1 63.5 0.4 34.7 28.8 62.5 63.5 62.1H674l14.2-28.2h-88.8zM142.3 461.2h-73c-34.7 0-62.9 28.1-62.9 62.9 0 34.7 28.1 62.9 62.9 62.9h73c34.7 0 62.8-28.1 62.8-62.9 0.1-34.8-28.1-62.9-62.8-62.9z m26.7 62.9c0 18.8-15.3 33.9-34.1 33.9H76.6c-18.3-0.4-33-15.1-33.3-33.3-0.4-18.8 14.5-34.3 33.3-34.7H135c18.9 0 34 15.3 34 34.1zM729.4 558.6v-97.4h-30.3v113.5c0 3.2 1.2 6.1 3.5 8.4s5.5 3.7 8.9 3.7h110.1l14.2-28.2H729.4z" p-id="3183" fill="#888888"></path><path d="M1005.6 469.2c-0.7-0.2-1.5-0.2-2.9-0.2h-0.9v4.5h2c1 0 2-0.1 2.7-1 0.2-0.4 0.4-0.9 0.4-1.3-0.1-0.9-0.5-1.7-1.3-2zM861.9 538.9h97.2l14.2-28.2H861.8c4.9-17.6 20.9-21.1 39.2-21.1h64.8l14.3-28.2h-86.8c-34.7 0.4-62.5 28.8-62.1 63.5 0.4 34.2 28 61.8 62.1 62.1h74.6l14.2-28.2h-80.9c-18.3-0.2-34.2-2.5-39.3-19.9zM365.6 503.1c-0.4-23.1-18.9-41.6-41.9-41.9H218v125.6h30.3v-97.4H316c11.2 0 20.3 6.6 20.4 17.8 0 11.2-9 16.7-20.3 16.7h-62l65.9 62.9h41.1l-48.5-40.7h11.1c23.5-0.3 42.3-19.6 41.9-43zM458 460c-6-0.1-11.5 2.8-14.9 7.8l-76 119.2h34.6l56.4-93.2 28 48.8h-52.3l14.3 22.1h53.1l13.4 22.2h34.7l-76.5-119.4c-3.3-4.7-8.8-7.5-14.8-7.5z" fill="#888888" p-id="3184"></path></svg>