<?xml version="1.0" standalone="no"?><!DOCTYPE svg PUBLIC "-//W3C//DTD SVG 1.1//EN" "http://www.w3.org/Graphics/SVG/1.1/DTD/svg11.dtd"><svg t="1653464726723" class="icon" viewBox="0 0 1024 1024" version="1.1" xmlns="http://www.w3.org/2000/svg" p-id="4809" xmlns:xlink="http://www.w3.org/1999/xlink" width="200" height="200"><defs><style type="text/css">@font-face { font-family: feedback-iconfont; src: url("//at.alicdn.com/t/font_1031158_u69w8yhxdu.woff2?t=1630033759944") format("woff2"), url("//at.alicdn.com/t/font_1031158_u69w8yhxdu.woff?t=1630033759944") format("woff"), url("//at.alicdn.com/t/font_1031158_u69w8yhxdu.ttf?t=1630033759944") format("truetype"); }
</style></defs><path d="M451.072 391.68c-1.024 6.656-12.8 14.336-25.088 12.288-12.8-2.048-21.504-12.288-20.48-18.944 1.024-6.656 12.288-10.752 24.576-9.216 12.288 1.536 22.016 8.704 20.992 15.872z" fill="#666666" p-id="4810"></path><path d="M995.328 608.256c-8.192-15.36-24.576-24.064-41.984-23.552-3.584 0-7.68 0.512-11.264 1.024l-17.92 3.072c-9.216 1.536-17.92 3.584-29.184 4.608-7.68 1.024-15.36 1.536-23.04 1.536h-5.632c78.336-132.096 119.296-249.856 129.024-369.664 5.632-68.096-17.408-120.32-70.656-159.232-53.76-39.424-114.688-58.368-185.344-58.368-18.944 0-38.912 1.536-58.88 3.584-10.24 1.024-19.968 2.56-30.208 4.096-22.016 3.584-44.544 6.656-66.048 6.656-8.192 0-16.896-0.512-25.088-1.536-13.312-2.048-26.624-3.072-39.936-3.072-41.472 0-78.336 10.752-110.592 31.744-1.536-0.512-2.56-0.512-4.096-1.024-59.904-18.944-109.568-28.16-156.672-28.16-13.312 0-26.624 0.512-40.448 2.048C132.096 30.72 81.92 61.952 53.248 116.224c-25.088 48.64-34.816 103.936-28.672 168.96 4.608 45.056 13.824 88.576 22.016 125.952 17.92 79.872 39.936 164.864 81.92 244.736 14.848 28.672 33.792 54.272 54.272 74.752 16.384 16.384 35.84 24.576 56.32 24.576 28.672 0 49.664-24.064 67.072-44.032 10.24-11.776 20.48-23.04 30.72-34.816 5.12-5.632 10.752-11.776 15.872-17.408 5.12-5.12 9.728-10.752 15.872-14.336 4.096-2.56 9.216 6.656 18.432 9.728 9.728 3.072 16.896 3.584 27.136 4.096 10.752 1.024-4.096 11.264-6.656 13.312-18.944 14.848-40.448 25.088-63.488 31.232-12.288 3.072-25.088 3.584-34.304 13.824-6.144 7.168-10.752 15.36-10.24 25.6 1.536 17.408 14.336 33.792 28.16 43.52 18.944 13.824 43.008 14.336 65.536 15.36h10.24c21.504 0 42.496-4.096 62.976-10.752 3.072-1.024 6.144-2.56 9.216-3.072-1.536 0.512 1.536 30.208 1.536 32.768 1.024 13.312 1.536 27.136 2.048 40.448l1.024 13.824c2.56 42.496 13.312 73.216 33.792 97.792 24.576 28.672 56.832 43.52 95.744 43.52 10.752 0 21.504-1.024 32.768-3.072 79.36-13.824 119.296-51.712 133.12-126.976 9.216-47.616 14.848-96.256 20.48-143.36l2.56-17.92c16.896 1.536 34.304 1.536 51.2 0 57.856-5.12 101.888-25.088 135.168-61.952 21.504-21.504 17.408-41.472 10.24-54.272zM282.112 349.184c0.512 37.376-0.512 73.728-3.072 108.032-4.096 55.808 9.216 100.864 41.472 138.24l-12.288 13.824c-20.992 23.552-41.472 46.592-62.976 69.12-1.536 1.536-3.072 2.56-5.12 2.56s-4.096-0.512-5.632-1.536c-20.48-23.04-34.816-42.496-44.544-61.44-33.28-64-52.736-132.608-72.192-215.552l-3.072-13.824c-11.264-49.152-22.528-95.232-19.456-143.36 1.536-23.552 5.12-45.056 10.752-64.512 13.824-48.64 46.08-76.8 98.816-86.016 14.336-2.56 28.672-3.584 43.52-3.584 33.792 0 67.584 6.144 98.304 14.336-45.568 64.512-66.048 142.848-64.512 243.712z m70.656 144.384c-0.512-40.448 1.024-81.408 2.048-121.856l1.024-27.648c24.576-14.848 46.08-21.504 67.584-21.504h5.632c14.336 1.024 18.432 6.656 20.48 15.36 17.92 76.8 14.848 134.144-11.264 185.856-6.656 14.336-12.8 29.696-17.92 44.544l-2.048 5.12c-34.304-7.168-65.024-43.008-65.536-79.872z m118.784 235.008c-27.648 31.744-80.384 35.328-119.296 18.432 6.656-1.536 11.264-2.56 15.872-3.072 31.232-4.096 57.856-14.848 75.776-38.912 5.632-7.68 13.312-14.336 24.576-5.632 10.24 7.168 11.264 19.456 3.072 29.184z m261.12-64c-6.656 70.656-15.36 141.312-27.136 211.968-7.168 43.008-33.28 64-84.48 69.12-2.56 0.512-5.632 0.512-8.704 0.512-49.664 0-57.856-47.104-58.88-67.072-3.584-61.952-5.12-124.928-6.144-185.856l-0.512-18.432c-1.024-48.128-16.384-74.24-55.296-88.576 6.144-15.36 12.288-30.72 18.432-45.568 28.672-65.024 25.088-130.56 16.384-191.488-8.704-63.488-46.592-99.84-102.912-99.84-14.848 0-30.72 2.56-47.616 7.68-5.12 1.536-10.24 3.072-15.36 5.12 10.24-56.32 28.672-110.592 80.896-147.456 24.064-16.896 51.712-24.576 85.504-24.576 12.8 0 26.112 1.024 38.912 3.072 89.6 13.312 155.136 61.952 201.216 152.064-8.192 0.512-16.384 1.024-25.088 2.56-28.672 5.12-67.072 19.456-81.92 40.448-15.872 23.04-20.992 52.224-14.848 84.992 9.728 51.712 43.008 98.304 61.952 132.608 13.312 24.064 30.72 47.104 44.544 71.168l10.752 18.944c-21.504 17.408-27.136 44.544-29.696 68.608z m46.592-222.208s2.048 30.72 2.048 32.768c-14.848-33.28-44.544-66.56-58.368-99.84-4.096-10.24-5.632-22.016-4.096-32.768 1.536-13.824 20.48-22.528 33.792-24.064 9.728-1.024 18.944-2.048 30.208-1.024-0.512 3.072-1.024 6.656-1.536 9.728-8.192 39.424-5.12 77.824-2.048 115.2z m-56.32-364.032h11.776c43.008 0 80.384 9.216 113.664 28.16 24.576 13.824 47.104 35.84 66.56 55.808 10.24 10.752 9.728 29.184 8.704 49.152-5.632 80.896-27.648 161.792-68.096 248.832-0.512-6.144-1.536-11.776-2.048-17.92-5.632-36.864-5.12-74.24 1.536-111.104 7.68-40.96 1.024-80.896-20.48-121.344-29.184-54.784-66.048-98.304-111.616-131.584zM827.904 680.96c-13.312 0.512-20.48-16.384-10.752-30.208 5.12-7.168 19.968-15.36 26.112-12.8 35.84 13.824 70.144 6.144 104.96-2.56l9.216-2.56c-35.84 38.4-81.408 47.104-129.536 48.128z" fill="#666666" p-id="4811"></path><path d="M756.736 363.52c1.024 6.144-7.168 15.872-18.944 17.408-11.776 1.536-22.016-5.12-23.04-11.264-1.024-6.144 7.68-12.8 19.456-14.336 11.776-2.048 21.504 2.048 22.528 8.192z" fill="#666666" p-id="4812"></path></svg>