<svg width="128" height="128" viewBox="0 0 128 128" fill="none" xmlns="http://www.w3.org/2000/svg">
  <g clip-path="url(#clip0_3_2)">
    <path
      d="M47.1836 105.68C44.3711 105.68 42.9648 104.918 42.9648 103.395V45.3281C42.9648 40.7969 42.75 37.5352 42.3203 35.543C41.8906 33.5117 41.6758 32.3984 41.6758 32.2031C41.6758 31.3438 42.3203 30.7383 43.6094 30.3867C44.9375 29.9961 46.1875 29.8008 47.3594 29.8008C48.3359 29.8008 49.0586 30.3281 49.5273 31.3828C49.9961 32.4375 50.3281 33.5117 50.5234 34.6055C50.7578 35.6992 50.9141 36.4023 50.9922 36.7148C55.9531 31.5195 61.4805 28.9219 67.5742 28.9219C71.7539 28.9219 75.3672 30.1133 78.4141 32.4961C81.4609 34.8789 83.7852 38.1797 85.3867 42.3984C86.9883 46.6172 87.7891 51.4219 87.7891 56.8125C87.7891 62.6719 86.8906 67.6914 85.0938 71.8711C83.3359 76.0508 80.8555 79.2148 77.6523 81.3633C74.4492 83.5117 70.7578 84.5859 66.5781 84.5859C63.5703 84.5859 60.8945 84.1367 58.5508 83.2383C56.2461 82.3398 53.9609 81.0312 51.6953 79.3125V103.395C51.6953 104.918 50.3281 105.68 47.5938 105.68H47.1836ZM64.5859 76.9102C69.2344 76.793 72.7305 75.0938 75.0742 71.8125C77.418 68.5312 78.5898 63.7656 78.5898 57.5156C78.5898 50.7969 77.4766 45.6211 75.25 41.9883C73.0625 38.3164 69.8984 36.4805 65.7578 36.4805C63.4531 36.4805 61.0508 37.1055 58.5508 38.3555C56.0898 39.6055 53.8047 41.3828 51.6953 43.6875V72.2227C55.5234 75.3477 59.8203 76.9102 64.5859 76.9102Z"
      fill="#000000"
    />
  </g>
</svg>
