<svg width="128" height="128" viewBox="0 0 128 128" fill="none" xmlns="http://www.w3.org/2000/svg">
  <g clip-path="url(#clip0_0_1)">
    <path
      d="M44.9414 110.57C41.7539 110.57 40.1602 109.707 40.1602 107.98V42.1719C40.1602 37.0365 39.9167 33.3398 39.4297 31.082C38.9427 28.7799 38.6992 27.5182 38.6992 27.2969C38.6992 26.3229 39.4297 25.6367 40.8906 25.2383C42.3958 24.7956 43.8125 24.5742 45.1406 24.5742C46.2474 24.5742 47.0664 25.1719 47.5977 26.3672C48.1289 27.5625 48.5052 28.7799 48.7266 30.0195C48.9922 31.2591 49.1693 32.056 49.2578 32.4102C54.8802 26.5221 61.1445 23.5781 68.0508 23.5781C72.7878 23.5781 76.8828 24.9284 80.3359 27.6289C83.7891 30.3294 86.4232 34.0703 88.2383 38.8516C90.0534 43.6328 90.9609 49.0781 90.9609 55.1875C90.9609 61.8281 89.9427 67.5169 87.9062 72.2539C85.9141 76.9909 83.1029 80.5768 79.4727 83.0117C75.8424 85.4466 71.6589 86.6641 66.9219 86.6641C63.513 86.6641 60.4805 86.1549 57.8242 85.1367C55.2122 84.1185 52.6224 82.6354 50.0547 80.6875V107.98C50.0547 109.707 48.5052 110.57 45.4062 110.57H44.9414ZM64.6641 77.9648C69.9323 77.832 73.8945 75.9062 76.5508 72.1875C79.207 68.4688 80.5352 63.0677 80.5352 55.9844C80.5352 48.3698 79.2734 42.5039 76.75 38.3867C74.2708 34.2253 70.6849 32.1445 65.9922 32.1445C63.3802 32.1445 60.6576 32.8529 57.8242 34.2695C55.0352 35.6862 52.4453 37.7005 50.0547 40.3125V72.6523C54.3932 76.194 59.263 77.9648 64.6641 77.9648Z"
      fill="currentColor"
    />
  </g>
</svg>
