<?xml version="1.0" standalone="no"?><!DOCTYPE svg PUBLIC "-//W3C//DTD SVG 1.1//EN" "http://www.w3.org/Graphics/SVG/1.1/DTD/svg11.dtd"><svg t="1648201498520" class="icon" viewBox="0 0 1024 1024" version="1.1" xmlns="http://www.w3.org/2000/svg" p-id="5739" width="200" height="200" xmlns:xlink="http://www.w3.org/1999/xlink"><defs><style type="text/css">@font-face { font-family: feedback-iconfont; src: url("//at.alicdn.com/t/font_1031158_u69w8yhxdu.woff2?t=1630033759944") format("woff2"), url("//at.alicdn.com/t/font_1031158_u69w8yhxdu.woff?t=1630033759944") format("woff"), url("//at.alicdn.com/t/font_1031158_u69w8yhxdu.ttf?t=1630033759944") format("truetype"); }
</style></defs><path d="M928.229 784.149c0 44.024-36.02 80.044-80.044 80.044L175.815 864.193c-44.024 0-80.044-36.02-80.044-80.044L95.771 239.851c0-44.024 36.02-80.044 80.044-80.044l672.369 0c44.024 0 80.044 36.02 80.044 80.044L928.228 784.149zM351.912 303.886c0-9.005-7.004-16.009-16.009-16.009L175.815 287.877c-9.005 0-16.009 7.004-16.009 16.009l0 96.053c0 9.005 7.004 16.009 16.009 16.009l160.088 0c9.005 0 16.009-7.004 16.009-16.009L351.912 303.886zM351.912 495.991c0-9.005-7.004-16.009-16.009-16.009L175.815 479.982c-9.005 0-16.009 7.004-16.009 16.009l0 96.053c0 9.005 7.004 16.009 16.009 16.009l160.088 0c9.005 0 16.009-7.004 16.009-16.009L351.912 495.991zM351.912 688.097c0-9.005-7.004-16.009-16.009-16.009L175.815 672.088c-9.005 0-16.009 7.004-16.009 16.009l0 96.053c0 9.005 7.004 16.009 16.009 16.009l160.088 0c9.005 0 16.009-7.004 16.009-16.009L351.912 688.097zM608.053 303.886c0-9.005-7.004-16.009-16.009-16.009L431.956 287.877c-9.005 0-16.009 7.004-16.009 16.009l0 96.053c0 9.005 7.004 16.009 16.009 16.009l160.088 0c9.005 0 16.009-7.004 16.009-16.009L608.053 303.886zM608.053 495.991c0-9.005-7.004-16.009-16.009-16.009L431.956 479.982c-9.005 0-16.009 7.004-16.009 16.009l0 96.053c0 9.005 7.004 16.009 16.009 16.009l160.088 0c9.005 0 16.009-7.004 16.009-16.009L608.053 495.991zM608.053 688.097c0-9.005-7.004-16.009-16.009-16.009L431.956 672.088c-9.005 0-16.009 7.004-16.009 16.009l0 96.053c0 9.005 7.004 16.009 16.009 16.009l160.088 0c9.005 0 16.009-7.004 16.009-16.009L608.053 688.097zM864.193 303.886c0-9.005-7.004-16.009-16.009-16.009L688.097 287.877c-9.005 0-16.009 7.004-16.009 16.009l0 96.053c0 9.005 7.004 16.009 16.009 16.009l160.088 0c9.005 0 16.009-7.004 16.009-16.009L864.194 303.886zM864.193 495.991c0-9.005-7.004-16.009-16.009-16.009L688.097 479.982c-9.005 0-16.009 7.004-16.009 16.009l0 96.053c0 9.005 7.004 16.009 16.009 16.009l160.088 0c9.005 0 16.009-7.004 16.009-16.009L864.194 495.991zM864.193 688.097c0-9.005-7.004-16.009-16.009-16.009L688.097 672.088c-9.005 0-16.009 7.004-16.009 16.009l0 96.053c0 9.005 7.004 16.009 16.009 16.009l160.088 0c9.005 0 16.009-7.004 16.009-16.009L864.194 688.097z" p-id="5740" fill="#888888"></path></svg>